<svg width="512" height="512" viewBox="0 0 512 512" fill="none" xmlns="http://www.w3.org/2000/svg">
  <rect width="512" height="512" rx="112" fill="#0F172A"/>
  <rect x="96" y="96" width="320" height="320" rx="44" fill="#1E293B" stroke="#334155" stroke-width="8"/>

  <rect x="132" y="144" width="248" height="176" rx="20" fill="#F8FAFC"/>
  <line x1="132" y1="200" x2="380" y2="200" stroke="#CBD5E1" stroke-width="6"/>
  <line x1="132" y1="248" x2="380" y2="248" stroke="#CBD5E1" stroke-width="6"/>
  <line x1="206" y1="144" x2="206" y2="320" stroke="#CBD5E1" stroke-width="6"/>
  <line x1="280" y1="144" x2="280" y2="320" stroke="#CBD5E1" stroke-width="6"/>

  <path d="M152 285L214 238L258 264L334 204" stroke="#2563EB" stroke-width="14" stroke-linecap="round" stroke-linejoin="round"/>
  <path d="M318 200H346V228" stroke="#2563EB" stroke-width="14" stroke-linecap="round" stroke-linejoin="round"/>

  <circle cx="352" cy="352" r="70" fill="#10B981"/>
  <path d="M352 315V390" stroke="white" stroke-width="12" stroke-linecap="round"/>
  <path d="M383 332C378 321 366 314 352 314C336 314 323 324 323 336C323 350 336 357 352 360C367 363 381 368 381 381C381 394 367 404 352 404C338 404 326 398 321 387" stroke="white" stroke-width="12" stroke-linecap="round" stroke-linejoin="round"/>
  <path d="M260 382H154" stroke="#64748B" stroke-width="10" stroke-linecap="round"/>
</svg>
